<svg width="392" height="328" viewBox="0 0 392 328" fill="none" xmlns="http://www.w3.org/2000/svg">
<path d="M108.5 104.001C108.5 104.001 151.956 137.291 185 143.501C216.013 149.33 235.415 146.024 265.5 136.501C291.5 128.271 326 101.501 326 101.501C326 101.501 289.395 67.947 290.5 44.5009C291.086 32.0775 297 26.0011 302.5 22.0009C308 18.0007 304 20.5007 314 16.0006C343.705 2.63316 378.5 64.5 376 74.501C373.5 84.5021 363.954 83.4079 367.5 90.5C378 111.5 382.797 115.5 389.5 131C396.203 146.5 381.048 144 376 140C370.952 136 346.5 101.501 346.5 101.501L343 108.501C343 108.501 317.67 149.435 296.5 171.501C277.877 190.913 246.27 213.392 247 219.001C252.917 264.457 279 314.501 279 314.501C279 314.501 191.998 265.068 170 268.001C140 272.001 62 327.501 62 327.501C62 327.501 108.235 267.764 94 230.501C83.0706 201.891 34 180.001 34 180.001C34 180.001 58.6482 181.661 73 180.001C94 177.573 108.5 171.501 108.5 171.501C108.5 171.501 111.5 153.681 111.5 140.501C111.5 127.321 108.5 104.001 108.5 104.001Z" fill="url(#paint0_linear_320_60)"/>
<path d="M77.09 49C77.09 49 80.6264 67.476 86.53 74.08C92.4336 80.684 106 81.34 106 81.34C106 81.34 92.175 82.0275 86.53 88.6C80.885 95.1725 77.09 115 77.09 115C77.09 115 74.8754 95.4443 68.83 88.6C62.6644 81.6196 47 81.34 47 81.34C47 81.34 62.6399 80.8639 68.83 74.08C74.8291 67.5055 77.09 49 77.09 49Z" fill="url(#paint1_linear_320_60)"/>
<path d="M32.64 0C32.64 0 36.4761 20.9954 42.88 28.5C49.2839 36.0046 64 36.75 64 36.75C64 36.75 49.0034 37.5312 42.88 45C36.7566 52.4688 32.64 75 32.64 75C32.64 75 30.2377 52.7776 23.68 45C16.9919 37.0677 0 36.75 0 36.75C0 36.75 16.9653 36.209 23.68 28.5C30.1874 21.0289 32.64 0 32.64 0Z" fill="url(#paint2_linear_320_60)"/>
<circle cx="207" cy="85" r="45" fill="#9D00FF"/>
<defs>
<linearGradient id="paint0_linear_320_60" x1="212.591" y1="14.1183" x2="212.591" y2="327.501" gradientUnits="userSpaceOnUse">
<stop stop-color="#EE00FF"/>
<stop offset="1" stop-color="#2A00FF"/>
</linearGradient>
<linearGradient id="paint1_linear_320_60" x1="76.5" y1="49" x2="76.5" y2="115" gradientUnits="userSpaceOnUse">
<stop stop-color="#FF00EA"/>
<stop offset="1" stop-color="#0000FF"/>
</linearGradient>
<linearGradient id="paint2_linear_320_60" x1="32" y1="0" x2="32" y2="75" gradientUnits="userSpaceOnUse">
<stop stop-color="#FF00EA"/>
<stop offset="1" stop-color="#0000FF"/>
</linearGradient>
</defs>
</svg>
